# xmcd
# 
# Track frame offsets:
#     150
#     3515
#     23540
#     43515
#     64742
#     83325
#     99467
#     116500
#     132157
#     152342
#     156382
#     181540
#     206972
#     224200
#     242275
#     256602
#     273187
#     293075
# 
# Disc length: 4164
# 
# Revision: 1
# Processed by: cddbd v1.5.2PL0 Copyright (c) Steve Scherf et al.
# Submitted via: BonkEnc v1.0.8
# 
DISCID=e3104212
DTITLE=Usher - 8701 [Bonus Track]
DYEAR=2001
DGENRE=R&B
TTITLE0=8701
TTITLE1=U Remind Me
TTITLE2=I Don't Know [Feat. P. Diddy]
TTITLE3=Twork It Out
TTITLE4=U Got It Bad
TTITLE5=Pop Ya Collar
TTITLE6=If I Want To
TTITLE7=I Can't Let U Go
TTITLE8=U Don't Have To Call
TTITLE9=Without U (Interlude)
TTITLE10=Can U Help Me
TTITLE11=How Do I Say
TTITLE12=Hottest Thing
TTITLE13=Good Ol' Ghetto
TTITLE14=U-Turn
TTITLE15=T.T.P.
TTITLE16=Seperated
TTITLE17=U Remind Me [KC's Smooth Remix Feat. Chemistry]
EXTD=YEAR: 2001
EXTT0=
EXTT1=
EXTT2=
EXTT3=
EXTT4=
EXTT5=
EXTT6=
EXTT7=
EXTT8=
EXTT9=
EXTT10=
EXTT11=
EXTT12=
EXTT13=
EXTT14=
EXTT15=
EXTT16=
EXTT17=
PLAYORDER=
